<svg id="Capa_1" data-name="Capa 1" xmlns="http://www.w3.org/2000/svg" xmlns:xlink="http://www.w3.org/1999/xlink" viewBox="0 0 55.88 55.88"><defs><style>.cls-1{fill:none;}.cls-2{clip-path:url(#clip-path);}.cls-3{fill:#f7eab9;}</style><clipPath id="clip-path"><rect class="cls-1" width="55.88" height="55.88"/></clipPath></defs><title>1</title><g class="cls-2"><path class="cls-3" d="M51.24,14V13a6.52,6.52,0,1,0-9.33,0v1H41a.92.92,0,0,0,0,1.84H52.16a.92.92,0,1,0,0-1.84ZM50,11.45a2.91,2.91,0,0,1-.39.4.84.84,0,0,0-.34.67V14H47.49v-2.4l1.85-1.85A.95.95,0,0,0,48,8.38l-.7.69a1.07,1.07,0,0,1-1.52,0l-.69-.69a.95.95,0,0,0-1.34,1.34l1.84,1.85V14H43.75V12.52a.77.77,0,0,0-.34-.67A4.75,4.75,0,0,1,43,5.25a4.73,4.73,0,0,1,6.6-.39A4.63,4.63,0,0,1,50,11.45Z"/><path class="cls-3" d="M7.43,8.35a.93.93,0,1,0,.92-.92A.93.93,0,0,0,7.43,8.35Z"/><path class="cls-3" d="M41,22.32a.92.92,0,1,0,.92-.92A.92.92,0,0,0,41,22.32Z"/><path class="cls-3" d="M8.38,3.74A4.64,4.64,0,1,0,13,8.38,4.63,4.63,0,0,0,8.38,3.74Zm0,7.43a2.79,2.79,0,1,1,2.79-2.79A2.76,2.76,0,0,1,8.38,11.17Z"/><path class="cls-3" d="M54.93,32.58H35.37V1A.94.94,0,0,0,34.42,0H.89A.89.89,0,0,0,0,1V51.24a.94.94,0,0,0,1,.95H4.69v.89a2.8,2.8,0,1,0,5.59,0v-.95h8.38v2.8a.94.94,0,0,0,.95,1H55a1,1,0,0,0,1-1V33.53A1,1,0,0,0,54.93,32.58Zm-1,1.89a4.68,4.68,0,0,1-4.58,3.75H25.14a4.68,4.68,0,0,1-4.58-3.75ZM8.38,53.08a.95.95,0,1,1-1.9,0V50.29h1.9Zm0-4.64H6.54V46.6H8.38Zm0-3.74H6.54V29.78H8.38ZM6.65,27.94l.84-1.62.84,1.62Zm12,5.59V50.29H10.23V27.94a.75.75,0,0,0-.12-.39L8.27,23.8a1,1,0,0,0-1.34-.33,1,1,0,0,0-.34.33L4.75,27.55a1,1,0,0,0-.11.39V50.29H1.84V1.84H33.53V32.58h-14A1,1,0,0,0,18.61,33.53ZM54,54H20.51V38.11a6.59,6.59,0,0,0,4.63,2h24.2a6.61,6.61,0,0,0,4.64-2V54Z"/><path class="cls-3" d="M54.93,17.71H38.16a.94.94,0,0,0-.95.95V29.84a.94.94,0,0,0,.95.95H54.93a.94.94,0,0,0,1-.95V18.66A.91.91,0,0,0,54.93,17.71ZM54,28.89H39.11V19.56H54Z"/><path class="cls-3" d="M49.37,25.14h-2.8a.93.93,0,0,0,0,1.85h2.8a.93.93,0,0,0,0-1.85Z"/><path class="cls-3" d="M30.7,5.59h-14a.92.92,0,1,0,0,1.84h14a.92.92,0,1,0,0-1.84Z"/><path class="cls-3" d="M27,9.33H16.73a.92.92,0,0,0,0,1.84H27a.92.92,0,1,0,0-1.84Z"/><path class="cls-3" d="M22.35,47.47a.92.92,0,1,0,.92-.93A.92.92,0,0,0,22.35,47.47Z"/><path class="cls-3" d="M38.19,46.54H27.91a.93.93,0,0,0,0,1.85H38.19a.93.93,0,0,0,0-1.85Z"/><path class="cls-3" d="M34.45,50.29H27.91a.92.92,0,0,0,0,1.84h6.54a.92.92,0,1,0,0-1.84Z"/><path class="cls-3" d="M51.27,21.4h-4.7a.92.92,0,0,0,0,1.84h4.7a.92.92,0,1,0,0-1.84Z"/></g></svg>