<svg id="Capa_1" data-name="Capa 1" xmlns="http://www.w3.org/2000/svg" xmlns:xlink="http://www.w3.org/1999/xlink" viewBox="0 0 55.88 55.88"><defs><style>.cls-1{fill:none;}.cls-2{fill:#fef7db;}.cls-3{clip-path:url(#clip-path);}.cls-4{fill:#ce4b45;}</style><clipPath id="clip-path"><rect class="cls-1" x="11.21" y="11.21" width="33.46" height="33.46"/></clipPath></defs><title>1</title><circle class="cls-2" cx="27.98" cy="28.27" r="27.66"/><g class="cls-3"><path class="cls-4" d="M41.89,19.57V19a3.9,3.9,0,1,0-5.59,0v.6h-.55a.56.56,0,0,0,0,1.11h6.69a.56.56,0,0,0,0-1.11Zm-.74-1.5a1.66,1.66,0,0,1-.23.23.54.54,0,0,0-.2.4v.87H39.65V18.13l1.1-1.1a.57.57,0,0,0-.8-.8l-.42.41a.65.65,0,0,1-.91,0l-.41-.41a.57.57,0,0,0-.8,0,.55.55,0,0,0,0,.8l1.1,1.1v1.44h-1.1V18.7a.49.49,0,0,0-.2-.4,2.79,2.79,0,1,1,3.71-4.18A2.77,2.77,0,0,1,41.15,18.07Z"/><path class="cls-4" d="M15.66,16.21a.55.55,0,0,0,.55.55.54.54,0,0,0,.55-.55.55.55,0,0,0-.55-.55A.55.55,0,0,0,15.66,16.21Z"/><path class="cls-4" d="M35.73,24.57a.56.56,0,1,0,.56-.55A.56.56,0,0,0,35.73,24.57Z"/><path class="cls-4" d="M16.23,13.45A2.78,2.78,0,1,0,19,16.23,2.77,2.77,0,0,0,16.23,13.45Zm0,4.45a1.68,1.68,0,1,1,1.67-1.67A1.66,1.66,0,0,1,16.23,17.9Z"/><path class="cls-4" d="M44.1,30.71H32.39V11.78a.57.57,0,0,0-.57-.57H11.74a.53.53,0,0,0-.53.57V41.89a.56.56,0,0,0,.57.57H14V43a1.67,1.67,0,1,0,3.34,0v-.57h5V44.1a.57.57,0,0,0,.57.57H44.13a.57.57,0,0,0,.57-.57V31.28A.62.62,0,0,0,44.1,30.71Zm-.6,1.14a2.8,2.8,0,0,1-2.75,2.24H26.26a2.79,2.79,0,0,1-2.74-2.24ZM16.23,43a.57.57,0,0,1-.57.57.56.56,0,0,1-.57-.57V41.32h1.14Zm0-2.77H15.12V39.11h1.11Zm0-2.25H15.12V29h1.11Zm-1-10,.5-1,.5,1Zm7.16,3.34v10h-5V27.94a.45.45,0,0,0-.07-.24l-1.1-2.24a.59.59,0,0,0-.8-.2.48.48,0,0,0-.2.2L14.05,27.7a.71.71,0,0,0-.06.24V41.32H12.31v-29h19v18.4H22.92A.59.59,0,0,0,22.35,31.28ZM43.56,43.56H23.49V34a4,4,0,0,0,2.77,1.17H40.75A4,4,0,0,0,43.53,34v9.53Z"/><path class="cls-4" d="M44.1,21.81h-10a.57.57,0,0,0-.57.57v6.7a.56.56,0,0,0,.57.56h10a.56.56,0,0,0,.57-.56v-6.7A.55.55,0,0,0,44.1,21.81Zm-.54,6.7H34.63V22.92h8.93Z"/><path class="cls-4" d="M40.77,26.26H39.1a.56.56,0,1,0,0,1.11h1.67a.56.56,0,0,0,0-1.11Z"/><path class="cls-4" d="M29.59,14.55H21.23a.56.56,0,0,0,0,1.11h8.36a.56.56,0,1,0,0-1.11Z"/><path class="cls-4" d="M27.39,16.8H21.23a.54.54,0,0,0-.55.55.55.55,0,0,0,.55.55h6.16a.55.55,0,0,0,.55-.55A.55.55,0,0,0,27.39,16.8Z"/><path class="cls-4" d="M24.59,39.63a.56.56,0,0,0,1.11,0,.56.56,0,0,0-1.11,0Z"/><path class="cls-4" d="M34.08,39.08H27.92a.55.55,0,0,0-.55.55.55.55,0,0,0,.55.55h6.16a.55.55,0,0,0,.55-.55A.55.55,0,0,0,34.08,39.08Z"/><path class="cls-4" d="M31.84,41.32H27.92a.55.55,0,0,0-.55.55.55.55,0,0,0,.55.55h3.92a.55.55,0,0,0,.55-.55A.55.55,0,0,0,31.84,41.32Z"/><path class="cls-4" d="M41.91,24H39.1a.56.56,0,1,0,0,1.11h2.81a.56.56,0,0,0,0-1.11Z"/></g></svg>