<?xml version="1.0" encoding="utf-8"?>
<!-- Generator: Adobe Illustrator 22.1.0, SVG Export Plug-In . SVG Version: 6.00 Build 0)  -->
<svg version="1.1" id="Capa_1" xmlns="http://www.w3.org/2000/svg" xmlns:xlink="http://www.w3.org/1999/xlink" x="0px" y="0px"
	 viewBox="0 0 182 84.8" style="enable-background:new 0 0 182 84.8;" xml:space="preserve">
<style type="text/css">
	.st0{fill:#FDF8DC;}
	.st1{fill:none;stroke:#FAF3D8;stroke-width:2;stroke-linecap:round;stroke-miterlimit:10;}
</style>
<g>
	<g>
		<path class="st0" d="M7.1,37.3c0-0.5,0.1-0.9,0.4-1.2c0.3-0.3,0.7-0.5,1.2-0.5h1.6c0.2,0,0.3,0.1,0.4,0.2c0.1,0.1,0.1,0.3,0.1,0.4
			v9.7c0,1.5-0.5,2.7-1.4,3.5c-0.9,0.9-2.3,1.3-3.9,1.3c-0.8,0-1.6-0.1-2.2-0.3c-0.7-0.2-1.2-0.5-1.7-1c-0.5-0.4-0.8-0.9-1.1-1.5
			s-0.4-1.3-0.4-2V21.7c0-1.5,0.5-2.7,1.4-3.5s2.3-1.3,3.9-1.3c0.8,0,1.5,0.1,2.2,0.3c0.7,0.2,1.2,0.5,1.7,1
			c0.5,0.4,0.8,0.9,1.1,1.5c0.3,0.6,0.4,1.3,0.4,2v10c0,0.2,0,0.3-0.1,0.4c-0.1,0.1-0.2,0.2-0.4,0.2H8.7c-0.5,0-0.9-0.2-1.2-0.5
			c-0.3-0.3-0.4-0.7-0.4-1.2v-9c0-0.5-0.1-0.9-0.4-1.2C6.5,20.2,6,20,5.5,20c-0.5,0-0.9,0.2-1.2,0.5c-0.3,0.3-0.4,0.7-0.4,1.2v24.2
			c0,0.5,0.1,0.9,0.4,1.2c0.3,0.3,0.7,0.5,1.2,0.5c0.5,0,0.9-0.2,1.2-0.5c0.3-0.3,0.4-0.7,0.4-1.2V37.3z"/>
		<path class="st0" d="M30.2,17.3c0.8,0,1.5,0.1,2.2,0.3c0.7,0.2,1.2,0.6,1.7,1s0.8,0.9,1.1,1.5c0.3,0.6,0.4,1.3,0.4,2v10.2
			c0,0.8-0.2,1.5-0.5,2c-0.3,0.5-0.8,0.9-1.4,1.3c0.6,0.3,1,0.7,1.4,1.2c0.3,0.5,0.5,1.2,0.5,2v10.9c0,0.2,0,0.3-0.1,0.4
			c-0.1,0.1-0.2,0.2-0.4,0.2h-1.6c-0.5,0-0.9-0.2-1.2-0.5c-0.3-0.3-0.4-0.7-0.4-1.2v-9.8c0-0.5-0.1-0.9-0.4-1.2
			c-0.3-0.3-0.7-0.5-1.2-0.5h-1.6v11.5c0,0.5-0.1,0.9-0.4,1.2c-0.3,0.3-0.7,0.5-1.2,0.5h-1.6c-0.2,0-0.3-0.1-0.4-0.2
			c-0.1-0.1-0.1-0.3-0.1-0.4V17.9c0-0.2,0-0.3,0.1-0.4c0.1-0.1,0.2-0.2,0.4-0.2H30.2z M28.5,20.4v13.5h1.6c0.6,0,1-0.2,1.2-0.5
			c0.3-0.3,0.4-0.7,0.4-1.2V22.1c0-0.5-0.1-0.9-0.4-1.2c-0.3-0.3-0.7-0.5-1.2-0.5H28.5z"/>
		<path class="st0" d="M49.5,18.7c0-0.4,0.1-0.8,0.4-1c0.3-0.3,0.7-0.4,1.2-0.4h1.6c0.2,0,0.3,0.1,0.4,0.2c0.1,0.1,0.1,0.3,0.1,0.4
			v31.3c0,0.3-0.1,0.5-0.3,0.7s-0.4,0.3-0.7,0.3h-1.7c-0.3,0-0.5-0.1-0.7-0.3s-0.3-0.4-0.3-0.7V18.7z"/>
		<path class="st0" d="M75.7,28.8c-0.5,0-0.9-0.2-1.2-0.5c-0.3-0.3-0.4-0.7-0.4-1.2v-5.5c0-0.5-0.1-0.9-0.4-1.2
			C73.4,20.2,73,20,72.5,20c-0.6,0-1,0.2-1.2,0.5c-0.3,0.3-0.4,0.7-0.4,1.2c0,1.5,0.1,2.8,0.3,3.9s0.5,2.1,0.8,2.9
			c0.3,0.8,0.7,1.6,1.1,2.3s0.8,1.3,1.3,2c0.4,0.7,0.9,1.4,1.3,2.1s0.8,1.6,1.1,2.7c0.3,1,0.6,2.2,0.8,3.5s0.3,3,0.3,4.8
			c0,0.7-0.1,1.4-0.4,2c-0.3,0.6-0.6,1.1-1.1,1.5c-0.5,0.4-1,0.7-1.7,1c-0.7,0.2-1.4,0.3-2.2,0.3c-1.7,0-3-0.4-3.9-1.3
			s-1.4-2-1.4-3.5V39c0-0.2,0-0.3,0.1-0.4c0.1-0.1,0.2-0.2,0.4-0.2h1.6c0.5,0,0.9,0.2,1.2,0.5c0.3,0.3,0.4,0.7,0.4,1.2v5.8
			c0,0.5,0.1,0.9,0.4,1.2c0.3,0.3,0.7,0.5,1.2,0.5c0.6,0,1-0.2,1.2-0.5c0.3-0.3,0.4-0.7,0.4-1.2c0-1.8-0.1-3.3-0.3-4.6
			C73.6,40,73.4,39,73,38s-0.7-1.7-1.1-2.4c-0.4-0.7-0.8-1.3-1.3-2c-0.4-0.6-0.9-1.3-1.3-1.9c-0.4-0.7-0.8-1.5-1.1-2.4
			c-0.3-0.9-0.6-2-0.8-3.2c-0.2-1.2-0.3-2.7-0.3-4.5c0-0.7,0.1-1.4,0.4-2s0.6-1.1,1.1-1.5c0.5-0.4,1-0.7,1.7-1
			c0.7-0.2,1.4-0.3,2.2-0.3c1.7,0,3,0.4,3.9,1.3c0.9,0.9,1.4,2,1.4,3.5v6.6c0,0.2,0,0.3-0.1,0.4c-0.1,0.1-0.2,0.2-0.4,0.2H75.7z"/>
		<path class="st0" d="M100.5,17.3c0.2,0,0.3,0,0.4,0.1c0.1,0.1,0.2,0.2,0.2,0.4v0.9c0,0.5-0.1,0.9-0.4,1.2c-0.3,0.3-0.6,0.4-1,0.4
			h-1.7v28.8c0,0.3-0.1,0.5-0.3,0.7s-0.4,0.3-0.7,0.3h-1.7c-0.3,0-0.5-0.1-0.7-0.3s-0.3-0.4-0.3-0.7V20.4h-1.7c-0.4,0-0.8-0.1-1-0.4
			c-0.3-0.3-0.4-0.7-0.4-1.2v-0.9c0-0.2,0.1-0.3,0.2-0.4c0.1-0.1,0.3-0.1,0.4-0.1H100.5z"/>
		<path class="st0" d="M114.2,18.7c0-0.4,0.1-0.8,0.4-1c0.3-0.3,0.7-0.4,1.2-0.4h1.6c0.2,0,0.3,0.1,0.4,0.2c0.1,0.1,0.1,0.3,0.1,0.4
			v31.3c0,0.3-0.1,0.5-0.3,0.7s-0.4,0.3-0.7,0.3h-1.7c-0.3,0-0.5-0.1-0.7-0.3s-0.3-0.4-0.3-0.7V18.7z"/>
		<path class="st0" d="M142.1,17.3c0.2,0,0.3,0.1,0.4,0.2c0.1,0.1,0.1,0.3,0.1,0.4v31.8c0,0.2,0,0.3-0.1,0.4
			c-0.1,0.1-0.2,0.2-0.4,0.2h-1.6c-0.5,0-0.9-0.1-1.1-0.3s-0.4-0.5-0.5-0.9c0-0.2-0.1-0.7-0.2-1.3c-0.1-0.7-0.3-1.5-0.5-2.4
			s-0.5-2-0.7-3.1c-0.3-1.1-0.5-2.3-0.8-3.4c-0.3-1.2-0.5-2.3-0.7-3.5c-0.2-1.1-0.4-2.2-0.6-3.1l0.3,16.5c0,0.5-0.1,0.9-0.4,1.2
			c-0.3,0.3-0.7,0.5-1.2,0.5h-1.6c-0.2,0-0.3-0.1-0.4-0.2c-0.1-0.1-0.1-0.3-0.1-0.4V17.9c0-0.2,0-0.3,0.1-0.4
			c0.1-0.1,0.2-0.2,0.4-0.2h1.6c0.5,0,0.8,0.1,1.1,0.4c0.3,0.3,0.5,0.6,0.5,1c0,0.3,0.1,0.8,0.3,1.6c0.1,0.8,0.3,1.7,0.5,2.7
			c0.2,1,0.4,2.2,0.7,3.4c0.2,1.2,0.5,2.5,0.7,3.7c0.3,1.2,0.5,2.4,0.7,3.5c0.2,1.1,0.4,2,0.6,2.8l-0.3-17.7c0-0.4,0.1-0.8,0.4-1
			c0.3-0.3,0.7-0.4,1.2-0.4H142.1z"/>
		<path class="st0" d="M162.7,17.3c0.2,0,0.3,0.1,0.4,0.2c0.1,0.1,0.1,0.2,0.2,0.4l3.1,31.7c0,0.2,0,0.3-0.2,0.5s-0.3,0.2-0.6,0.2
			h-1.4c-0.5,0-0.9-0.1-1.2-0.4c-0.3-0.3-0.5-0.6-0.5-1l-0.3-4.5h-2.3l-0.3,4.5c0,0.4-0.2,0.7-0.5,1c-0.3,0.3-0.7,0.4-1.2,0.4h-1.4
			c-0.3,0-0.5-0.1-0.6-0.2s-0.2-0.3-0.2-0.5l3.1-31.7c0-0.1,0.1-0.3,0.2-0.4c0.1-0.1,0.2-0.2,0.4-0.2H162.7z M160.1,41.2h1.9
			l-1-15.9L160.1,41.2z"/>
	</g>
	<g>
		<g>
			<path class="st0" d="M106.3,57.7c0.1,0,0.3,0,0.4,0.1c0.1,0.1,0.1,0.2,0,0.4c-0.5,0.7-1.2,1.3-2,1.7c-0.8,0.4-1.5,0.8-2.3,1.2
				c-1.8,0.8-3.5,1.5-5.2,2c-0.7,0.2-1.5,0.4-2.3,0.6c-0.8,0.2-1.6,0.3-2.3,0.4c-0.7,0.1-1.3,0.1-2,0.1c-0.7,0-1.3-0.1-2-0.4
				c-0.7-0.3-1.2-0.8-1.5-1.4c-0.3-0.6-0.4-1.2-0.4-1.9s0.1-1.3,0.4-2c0.2-0.7,0.5-1.3,0.9-1.8c0.4-0.6,0.9-1.1,1.4-1.6
				c0.5-0.5,1.1-0.9,1.7-1.2c0.5-0.2,1.1-0.3,1.6-0.2c0.6,0.1,1,0.5,1.1,1.1c0.1,0.6,0.1,1.2-0.3,1.8c-0.3,0.6-0.8,1-1.4,1.5
				c-0.6,0.4-1.2,0.7-1.9,0.9c-0.7,0.2-1.3,0.2-1.9,0.1c-0.1,0.4-0.2,0.9-0.2,1.3c0,0.8,0.3,1.4,0.8,1.7s1.2,0.4,2,0.4
				c1.3,0,2.7-0.2,4-0.6c1.4-0.4,2.7-0.8,3.9-1.3c1.4-0.5,2.7-1.1,4-1.7c0.6-0.3,1.1-0.6,1.7-0.9c0.6-0.3,1.2-0.5,1.8-0.6
				L106.3,57.7z M89.6,56.9c-0.3,0.4-0.6,0.7-0.8,1.1c0.6-0.2,1.1-0.4,1.6-0.6c0.5-0.2,1-0.6,1.4-1.1c0.1-0.1,0.2-0.3,0.4-0.6
				c0.1-0.2,0-0.4-0.4-0.5c-0.1,0-0.3,0-0.4,0.1c-0.2,0.1-0.3,0.2-0.4,0.3C90.4,56,90,56.4,89.6,56.9L89.6,56.9z"/>
			<path class="st0" d="M125.4,58c0.1,0.1,0.1,0.3,0,0.4c-0.1,0.1-0.2,0.2-0.3,0.2c0,0-0.1,0.1-0.1,0.1s0,0,0-0.1
				c-0.1,0-0.1,0-0.2,0.1c-0.1,0.1-0.4,0.2-0.8,0.4c-0.4,0.1-0.8,0.3-1.3,0.4c-0.4,0.1-0.9,0.2-1.3,0.3c-1.1,0.3-2.2,0.5-3.4,0.7
				c-1.1,0.2-2.3,0.3-3.4,0.4c-0.6,0-1.4,0-2.2,0c-0.8,0-1.5-0.2-2.2-0.5c-0.6,1.3-1.3,2.5-2,3.7c-0.7,1.2-1.4,2.4-2.1,3.6
				c-0.1,0.2-0.3,0.3-0.5,0.4s-0.4,0-0.6-0.2c-0.6-0.7-0.8-1.5-0.7-2.4c0.1-0.8,0.3-1.7,0.4-2.5l0.7-3.7c0.1-0.5,0.2-1.1,0.3-1.6
				s0.3-1,0.6-1.4c0.1-0.1,0.3-0.2,0.4-0.1c0.2,0.1,0.2,0.2,0.2,0.3c0.1,0.4,0.1,0.7,0,1.1s-0.1,0.7-0.2,1.1l-0.5,2.8l-0.5,2.8
				c-0.1,0.2-0.1,0.5-0.2,0.7c0,0.3-0.1,0.5-0.1,0.8c0.6-1,1.1-1.9,1.6-2.9c0.5-0.9,1-1.9,1.5-2.9l0.3-0.7c-0.4-0.5-0.6-1.1-0.4-1.8
				c0.1-0.7,0.3-1.3,0.5-1.8c0.6-1.5,1.5-2.9,2.7-4.2c0.3-0.3,0.6-0.3,0.9,0.1c0.2,0.2,0.3,0.5,0.4,0.8c0,0.3,0,0.6-0.1,0.9
				c-0.1,0.3-0.2,0.6-0.3,0.9c-0.1,0.3-0.3,0.5-0.4,0.8c-0.5,1.3-1.1,2.7-1.7,4c0.1,0,0.3,0.1,0.6,0.2c0.9,0.3,1.8,0.4,2.8,0.3
				c1-0.1,1.9-0.2,2.8-0.3c1-0.1,1.9-0.3,2.8-0.5c0.9-0.2,1.8-0.4,2.8-0.6c0.1,0,0.3-0.1,0.5-0.1c0.2-0.1,0.5-0.1,0.8-0.1
				c0.3,0,0.5,0,0.8,0s0.4,0.1,0.5,0.3L125.4,58z M110.5,57.5l0.5-1.2l0.5-1.3c-0.4,0.7-0.7,1.4-0.9,2.1l-0.2,0.3L110.5,57.5z"/>
			<path class="st0" d="M142.5,57.6c0.3-0.1,0.5-0.1,0.8,0.1c0.2,0.2,0.3,0.4,0.1,0.7c-0.4,0.6-0.9,1.1-1.4,1.5
				c-0.5,0.4-1,0.9-1.5,1.3c-1,0.9-2.1,1.8-3.1,2.6c-1,0.7-2,1.5-3.1,2.3s-2.3,1.4-3.5,1.8c-0.5,0.1-1.1,0.2-1.6,0.2
				c-0.5,0-1-0.3-1.4-0.7c-0.4-0.4-0.6-0.9-0.6-1.4c0-0.5,0.1-1,0.3-1.5c0.2-0.7,0.5-1.5,0.8-2.3s0.7-1.6,1.1-2.3l-1.5,0.8
				c-0.4,0.3-0.9,0.6-1.3,0.9c-0.4,0.3-0.8,0.6-1.2,0.9c-0.3,0.3-0.6,0.5-0.9,0.7c-0.3,0.2-0.7,0.3-1.1,0.3c-0.2,0-0.4,0-0.5-0.1
				c-0.1-0.1-0.2-0.2-0.3-0.4c-0.1-0.7,0-1.3,0.2-2c0.3-0.7,0.6-1.3,0.9-1.8c0.4-0.7,0.9-1.4,1.4-2.1s1.1-1.3,1.7-1.8
				c0.4-0.3,0.9-0.7,1.5-0.9s1.1-0.2,1.6,0.2c0.3,0.3,0.6,0.7,0.8,1.2c0.2,0.5,0.4,1,0.4,1.5h0.2c0.2-0.1,0.4,0,0.5,0.1
				c0.2,0.2,0.2,0.3,0.1,0.5c-0.1,0.2-0.1,0.4-0.2,0.4c0,0.1,0,0.3-0.1,0.3c-0.2,0.5-0.4,0.9-0.7,1.4c-0.3,0.4-0.5,0.9-0.8,1.3
				c-0.3,0.5-0.5,1-0.7,1.5c-0.2,0.5-0.4,1-0.6,1.5c-0.1,0.2-0.1,0.5-0.2,0.7c-0.1,0.2-0.1,0.5-0.2,0.7c0,0.5,0.1,0.8,0.4,0.9
				s0.7,0.1,1.1,0c0.5-0.1,1-0.3,1.5-0.6c0.4-0.3,0.9-0.5,1.3-0.8c0.9-0.6,1.8-1.2,2.6-1.8c0.8-0.6,1.7-1.3,2.5-2
				c0.7-0.6,1.5-1.3,2.2-2c0.7-0.7,1.5-1.3,2.3-1.8L142.5,57.6z M127.4,59.2c0.4-0.3,0.8-0.5,1.3-0.8c0.5-0.3,0.9-0.5,1.4-0.7
				c-0.1-0.4-0.3-0.7-0.4-1.1c-0.2-0.4-0.4-0.7-0.6-0.9c-0.1,0-0.1,0-0.2,0.1c-0.1,0.1-0.1,0.1-0.2,0.1c-0.1,0-0.1,0-0.2,0.1
				c-0.2,0.1-0.4,0.3-0.6,0.5c-0.2,0.2-0.4,0.4-0.6,0.6c-0.8,0.8-1.5,1.7-2.2,2.8c-0.1,0.2-0.3,0.5-0.5,0.7
				c-0.2,0.3-0.3,0.5-0.4,0.8c0.2-0.2,0.4-0.4,0.6-0.5c0.2-0.2,0.3-0.3,0.4-0.4c0.7-0.5,1.3-0.9,2-1.3H127.4z"/>
			<path class="st0" d="M165.4,57.8c0.2,0.1,0.3,0.2,0.4,0.4c0.1,0.2,0,0.3-0.2,0.4c-0.1,0.2-0.3,0.3-0.5,0.5
				c-0.2,0.1-0.4,0.2-0.5,0.3c-0.4,0.2-0.8,0.4-1.3,0.6c-0.4,0.2-0.9,0.3-1.3,0.5c-1,0.4-2.1,0.8-3.2,1.1c-1.1,0.4-2.1,0.6-3.2,0.9
				c-0.8,0.2-1.6,0.3-2.6,0.4c-0.9,0.1-1.8-0.1-2.5-0.7c-0.6-0.4-0.9-1-0.8-1.7c0.1-0.7,0.2-1.3,0.4-2l0.5-1.7
				c0.1-0.2,0.1-0.4,0.2-0.5c0.1-0.1,0-0.2-0.3-0.2c-0.3,0-0.7,0.2-1.1,0.6c-0.4,0.4-0.7,0.6-1,0.9c-1.4,1.2-2.7,2.5-3.8,3.9
				c-1.1,1.5-2.1,2.9-3.2,4.5c-0.3,0.4-0.6,0.5-0.9,0.3c-0.4-0.2-0.5-0.5-0.4-0.9c0.2-1.3,0.5-2.7,0.9-4c0.4-1.3,0.8-2.6,1.3-3.9
				c0.3-0.6,0.5-1.3,0.8-1.9c0.3-0.6,0.6-1.2,0.9-1.8c0.3-0.5,0.5-1,0.9-1.6c0.3-0.6,0.7-1,1.3-1.2c0.2-0.1,0.4,0,0.5,0.1
				c0.2,0.1,0.2,0.3,0.1,0.5c-0.1,0.5-0.3,1-0.6,1.5c-0.3,0.5-0.6,1-0.9,1.4c-0.6,1.2-1.2,2.4-1.7,3.6c-0.4,1.1-0.8,2.2-1.2,3.5
				c0.8-1.1,1.6-2.1,2.5-3.1c0.9-1,1.9-1.9,2.9-2.7c0.2-0.2,0.5-0.4,0.8-0.6c0.3-0.2,0.6-0.4,0.9-0.5c0.3-0.1,0.7-0.2,1-0.3
				c0.3,0,0.7,0,1,0.2c0.3,0.2,0.5,0.4,0.6,0.7c0.1,0.3,0.1,0.6,0.1,0.9c-0.1,0.5-0.2,1-0.4,1.5c-0.2,0.5-0.3,1-0.5,1.5
				c-0.1,0.3-0.2,0.6-0.3,0.9c-0.1,0.3,0,0.5,0.3,0.7c0.1,0.1,0.3,0.1,0.5,0.1c0.2,0,0.3,0,0.5,0c0.5,0,1,0,1.5-0.1
				c0.5-0.1,1-0.2,1.5-0.3c1.1-0.3,2.2-0.6,3.3-0.9c1.1-0.4,2.2-0.8,3.2-1.2c0.2-0.1,0.4-0.2,0.7-0.3c0.3-0.1,0.6-0.3,1-0.4
				c0.4-0.1,0.7-0.3,1-0.3c0.3-0.1,0.6-0.1,0.8,0.1L165.4,57.8z"/>
			<path class="st0" d="M181.4,57.6c0.3-0.1,0.5,0,0.6,0.3c0.1,0.3,0.1,0.5-0.2,0.7c-2,1.2-4.1,2.2-6.3,3.1c-2.2,0.9-4.3,1.9-6.4,3
				c0.5,1,1,2,1.4,3c0.4,1,0.8,2.1,1.2,3.2c0.4,1.1,0.7,2.2,1,3.3c0.3,1.1,0.5,2.3,0.7,3.4c0.1,0.9,0.2,1.8,0.2,2.8
				c0,0.9-0.2,1.9-0.6,2.7c-0.5,1-1.2,1.6-2.1,1.8c-0.9,0.2-1.9,0.1-3-0.2c-1-0.3-2-0.8-3-1.4c-1-0.6-1.7-1.2-2.3-1.7
				c-0.9-0.8-1.6-1.8-2.3-2.8c-0.7-1.1-1.2-2.2-1.5-3.3c-0.3-1.2-0.4-2.3-0.2-3.5c0.2-1.2,0.7-2.3,1.5-3.3c0.4-0.6,1-1.1,1.5-1.5
				c0.6-0.4,1.2-0.8,1.8-1.2c0.6-0.3,1.2-0.7,1.8-1s1.2-0.7,1.8-0.9c-0.1-0.2-0.3-0.6-0.6-1.3c-0.3-0.7-0.6-1.4-1-2.1
				s-0.7-1.5-0.9-2.1s-0.5-1.1-0.5-1.3c-0.1-0.6,0-1.2,0.4-1.6s0.9-0.7,1.5-0.7c0.6-0.1,1.3,0,1.9,0.3c0.7,0.3,1.2,0.8,1.6,1.5
				c0,0.1,0,0.2,0,0.4c0,0.2-0.1,0.3-0.1,0.5c-0.1,0.1-0.1,0.3-0.2,0.4c-0.1,0.1-0.1,0.1-0.1,0c-0.2-0.5-0.5-0.9-0.9-1.2
				c-0.4-0.3-0.8-0.5-1.2-0.6c-0.4-0.1-0.7,0-1,0.2c-0.3,0.2-0.3,0.5-0.2,1.1c0,0.2,0.2,0.6,0.4,1.2c0.2,0.6,0.5,1.2,0.8,1.9
				c0.3,0.7,0.5,1.3,0.8,1.9c0.2,0.6,0.4,1,0.5,1.1l1-0.5c2-1,3.9-1.9,5.9-2.8C177.2,59,179.3,58.2,181.4,57.6L181.4,57.6z
				 M171.9,78.7c-0.5-4.7-1.9-9.1-4.2-13.4c-0.8,0.4-1.6,0.8-2.3,1.2s-1.5,0.8-2.3,1.3c-0.6,0.4-1.2,0.9-1.7,1.4
				c-0.5,0.5-0.9,1.1-1.2,1.8c-0.4,1.1-0.6,2.3-0.4,3.4c0.2,1.2,0.6,2.2,1.2,3.3c0.6,1,1.4,2,2.3,2.8c0.9,0.9,1.8,1.5,2.8,2
				c0.3,0.2,0.7,0.4,1.1,0.6s0.9,0.3,1.4,0.4c0.5,0.1,0.9,0.1,1.4,0.1c0.4,0,0.8-0.2,1.1-0.5c0.5-0.5,0.8-1.2,0.8-2.1
				C172.1,80.1,172.1,79.3,171.9,78.7L171.9,78.7z"/>
		</g>
	</g>
	<path class="st1" d="M101.6,14.1c6.7-8,16.7-13.1,27.9-13.1c11.2,0,21.2,5.1,27.9,13.1"/>
	<path class="st1" d="M155.4,65.7c-6.6,6.7-15.7,10.8-25.8,10.8c-7.8,0-15-2.4-20.9-6.6"/>
</g>
</svg>
