<svg id="Capa_1" data-name="Capa 1" xmlns="http://www.w3.org/2000/svg" xmlns:xlink="http://www.w3.org/1999/xlink" viewBox="0 0 55.88 55.88"><defs><style>.cls-1{fill:none;}.cls-2{clip-path:url(#clip-path);}.cls-3{fill:#f7eab9;}</style><clipPath id="clip-path"><rect class="cls-1" width="55.88" height="55.88"/></clipPath></defs><title>1</title><g class="cls-2"><path class="cls-3" d="M4.64,5.59a.95.95,0,1,0,0-1.9.95.95,0,1,0,0,1.9Z"/><path class="cls-3" d="M8.38,5.59a1,1,0,1,0-1-1A.95.95,0,0,0,8.38,5.59Z"/><path class="cls-3" d="M12.12,5.59a1,1,0,1,0-.95-1A.95.95,0,0,0,12.12,5.59Z"/><path class="cls-3" d="M20.51,3.74a1,1,0,1,0,0,1.9h8.38a1,1,0,0,0,0-1.9Z"/><path class="cls-3" d="M34.47,3.74a1,1,0,0,0,0,1.9h14a.95.95,0,0,0,0-1.9Z"/><path class="cls-3" d="M54.93,31.68a.94.94,0,0,0-1,1V54H1.84V20.51a.94.94,0,0,0-.95-1,.87.87,0,0,0-.89,1V55a.94.94,0,0,0,1,1H55a.94.94,0,0,0,1-1V32.63A1,1,0,0,0,54.93,31.68Z"/><path class="cls-3" d="M54.93,0H1A.91.91,0,0,0,0,1V16.76a.94.94,0,0,0,1,.95.91.91,0,0,0,1-.95V9.33H51.24a.94.94,0,0,0,.95-.95.91.91,0,0,0-.95-1H16.76V1.84H54v27a1,1,0,1,0,1.9,0V.89A1,1,0,0,0,54.93,0Zm-40,7.43H1.84V1.84h13V7.43Z"/><path class="cls-3" d="M51.24,13a.94.94,0,0,0-1-.95H5.59a.94.94,0,0,0-1,.95V29.78a.94.94,0,0,0,1,.95h44.7a.94.94,0,0,0,1-.95Zm-9.33,1.9A1,1,0,1,1,41,14,.91.91,0,0,1,41.91,14.92ZM11.18,26.09a.94.94,0,0,1-.95-.95,5.44,5.44,0,0,1,.95-2.73,6,6,0,0,1,.94,2.73A1,1,0,0,1,11.18,26.09Zm4.3,2.8,5-10,5,10Zm12.12,0-2.34-4.64L27,20.73l4.08,8.16Zm7.77-2.8a.94.94,0,0,1-.95-.95,5.44,5.44,0,0,1,.95-2.73,5.88,5.88,0,0,1,1,2.73A.94.94,0,0,1,35.37,26.09Zm7.49,0a.94.94,0,0,1-1-.95,5.44,5.44,0,0,1,1-2.73,6.12,6.12,0,0,1,1,2.73A1,1,0,0,1,42.86,26.09Zm6.48,2.8H43.75V27.77a2.76,2.76,0,0,0,1.84-2.63c0-1.06-.89-4.63-2.79-4.63S40,24.08,40,25.14a2.76,2.76,0,0,0,1.84,2.63v1.12H36.32V27.77a2.76,2.76,0,0,0,1.84-2.63c0-1.06-.89-4.63-2.79-4.63s-2.79,3.57-2.79,4.63a2.76,2.76,0,0,0,1.84,2.63v1.12H33.13l-5.3-10.67a.93.93,0,0,0-1.23-.4c-.17.12-.34.23-.39.4l-2,3.91-2.91-5.81a.91.91,0,0,0-1.22-.4,1,1,0,0,0-.4.4L13.41,28.89H12.12V27.77A2.77,2.77,0,0,0,14,25.14c0-1.06-.9-4.63-2.79-4.63s-2.8,3.57-2.8,4.63a2.77,2.77,0,0,0,1.85,2.63v1.12H6.48V14H38.33a2.79,2.79,0,0,0,5.25,1.9,2.7,2.7,0,0,0,0-1.9h5.76Z"/><path class="cls-3" d="M36.32,17.71a.95.95,0,1,0-1-.95A.95.95,0,0,0,36.32,17.71Z"/><path class="cls-3" d="M39.11,20.51a.95.95,0,1,0-1-1A.95.95,0,0,0,39.11,20.51Z"/><path class="cls-3" d="M44.7,19.56a.95.95,0,1,0-1-.95A1,1,0,0,0,44.7,19.56Z"/><path class="cls-3" d="M26.09,33.53H13a.95.95,0,1,0,0,1.89H26a.94.94,0,0,0,.95-1A.89.89,0,0,0,26.09,33.53Z"/><path class="cls-3" d="M26.09,37.27H6.54a1,1,0,1,0,0,1.9H26.09a.94.94,0,0,0,.95-1A1,1,0,0,0,26.09,37.27Z"/><path class="cls-3" d="M26.09,41H6.54a.94.94,0,0,0-1,.95.91.91,0,0,0,1,1H26.09a.95.95,0,1,0,0-1.9Z"/><path class="cls-3" d="M26.09,44.7H6.54a.95.95,0,1,0,0,1.9H26.09a.94.94,0,0,0,.95-1A1,1,0,0,0,26.09,44.7Z"/><path class="cls-3" d="M26.09,48.44H6.54a1,1,0,1,0,0,1.9H26.09a.94.94,0,0,0,.95-1A1,1,0,0,0,26.09,48.44Z"/><path class="cls-3" d="M29.78,42.86h7.43a.94.94,0,0,0,.95-1V34.47a.93.93,0,0,0-.95-.94H29.78a.94.94,0,0,0-1,.94v7.44A1,1,0,0,0,29.78,42.86Zm6.54-7.49V41H30.73V39.11h2.8a1,1,0,0,0,0-1.9h-2.8V35.37Z"/><path class="cls-3" d="M50.29,33.53H42.86a.95.95,0,1,0,0,1.89h7.43a.95.95,0,1,0,0-1.89Z"/><path class="cls-3" d="M50.29,37.27H41a1,1,0,1,0,0,1.9h9.33a1,1,0,0,0,0-1.9Z"/><path class="cls-3" d="M50.29,41H41a.94.94,0,0,0-1,.95.91.91,0,0,0,1,1h9.33a1,1,0,0,0,0-1.9Z"/><path class="cls-3" d="M50.29,44.7H29.78a.95.95,0,0,0,0,1.9H50.29a1,1,0,0,0,0-1.9Z"/><path class="cls-3" d="M50.29,48.44H29.78a1,1,0,0,0,0,1.9H50.29a1,1,0,1,0,0-1.9Z"/><path class="cls-3" d="M12.52,16a2.88,2.88,0,0,0-3.3.5,1,1,0,0,0,.11,1.34,1,1,0,0,0,1.23,0,.91.91,0,0,1,1.34,0,.92.92,0,0,0,.67.28,1,1,0,0,0,.67-.28.91.91,0,0,1,1.34,0,.92.92,0,0,0,.67.28,1,1,0,0,0,.67-.28,1,1,0,0,0,0-1.34A3.08,3.08,0,0,0,12.52,16Z"/></g></svg>