<svg id="Capa_1" data-name="Capa 1" xmlns="http://www.w3.org/2000/svg" xmlns:xlink="http://www.w3.org/1999/xlink" viewBox="0 0 55.88 55.88"><defs><style>.cls-1{fill:none;}.cls-2{fill:#fef7db;}.cls-3{clip-path:url(#clip-path);}.cls-4{fill:#ce4b45;}</style><clipPath id="clip-path"><rect class="cls-1" x="11.21" y="11.21" width="33.46" height="33.46"/></clipPath></defs><title>1</title><circle class="cls-2" cx="27.94" cy="28.27" r="27.66"/><g class="cls-3"><path class="cls-4" d="M14,14.55a.57.57,0,1,0-.57-.56A.56.56,0,0,0,14,14.55Z"/><path class="cls-4" d="M16.23,14.55a.57.57,0,1,0-.57-.56A.56.56,0,0,0,16.23,14.55Z"/><path class="cls-4" d="M18.47,14.55A.57.57,0,1,0,17.9,14,.56.56,0,0,0,18.47,14.55Z"/><path class="cls-4" d="M23.49,13.45a.57.57,0,0,0,0,1.14h5a.57.57,0,1,0,0-1.14Z"/><path class="cls-4" d="M31.85,13.45a.56.56,0,0,0-.57.57.57.57,0,0,0,.57.57h8.37a.57.57,0,0,0,0-1.14Z"/><path class="cls-4" d="M44.1,30.18a.56.56,0,0,0-.57.57V43.56H12.31V23.49a.56.56,0,0,0-.57-.57.52.52,0,0,0-.53.57V44.13a.56.56,0,0,0,.57.57H44.13a.56.56,0,0,0,.57-.57V30.75A.59.59,0,0,0,44.1,30.18Z"/><path class="cls-4" d="M44.1,11.21H11.78a.54.54,0,0,0-.57.57v9.47a.56.56,0,0,0,.57.56.54.54,0,0,0,.57-.56V16.8H41.89a.57.57,0,0,0,.57-.57.55.55,0,0,0-.57-.57H21.25V12.31H43.56V28.47a.57.57,0,0,0,.57.57.56.56,0,0,0,.57-.57V11.74A.58.58,0,0,0,44.1,11.21Zm-24,4.45H12.31V12.31h7.8v3.35Z"/><path class="cls-4" d="M41.89,19a.56.56,0,0,0-.57-.56H14.55A.55.55,0,0,0,14,19V29a.56.56,0,0,0,.56.57H41.32a.56.56,0,0,0,.57-.57ZM36.3,20.14a.57.57,0,0,1-1.14,0,.57.57,0,0,1,.57-.57A.55.55,0,0,1,36.3,20.14ZM17.9,26.83a.56.56,0,0,1-.57-.57,3.34,3.34,0,0,1,.57-1.63,3.62,3.62,0,0,1,.57,1.63A.58.58,0,0,1,17.9,26.83Zm2.58,1.68,3-6,3,6Zm7.26,0-1.41-2.78,1-2.11,2.44,4.89Zm4.65-1.68a.56.56,0,0,1-.57-.57,3.24,3.24,0,0,1,.57-1.63A3.62,3.62,0,0,1,33,26.26.56.56,0,0,1,32.39,26.83Zm4.48,0a.56.56,0,0,1-.57-.57,3.44,3.44,0,0,1,.57-1.63,3.51,3.51,0,0,1,.57,1.63A.6.6,0,0,1,36.87,26.83Zm3.88,1.68H37.41v-.67a1.66,1.66,0,0,0,1.1-1.58c0-.63-.53-2.77-1.67-2.77s-1.68,2.14-1.68,2.77a1.67,1.67,0,0,0,1.11,1.58v.67H33v-.67a1.66,1.66,0,0,0,1.1-1.58c0-.63-.53-2.77-1.67-2.77s-1.68,2.14-1.68,2.77a1.67,1.67,0,0,0,1.11,1.58v.67h-.77l-3.18-6.39a.56.56,0,0,0-.74-.24.53.53,0,0,0-.23.24l-1.17,2.34L24,21a.56.56,0,0,0-.74-.24A.53.53,0,0,0,23,21l-3.78,7.53h-.77v-.67a1.66,1.66,0,0,0,1.1-1.58c0-.63-.53-2.77-1.67-2.77s-1.67,2.14-1.67,2.77a1.66,1.66,0,0,0,1.1,1.58v.67H15.09V19.57H34.16a1.67,1.67,0,0,0,3.15,1.14,1.71,1.71,0,0,0,0-1.14h3.44Z"/><path class="cls-4" d="M33,21.81a.57.57,0,1,0-.57-.56A.56.56,0,0,0,33,21.81Z"/><path class="cls-4" d="M34.63,23.49a.58.58,0,0,0,.57-.57.57.57,0,0,0-.57-.57.56.56,0,0,0-.57.57A.57.57,0,0,0,34.63,23.49Z"/><path class="cls-4" d="M38,22.92a.57.57,0,1,0-.57-.57A.57.57,0,0,0,38,22.92Z"/><path class="cls-4" d="M26.83,31.28H19a.57.57,0,0,0,0,1.14h7.8a.56.56,0,0,0,.57-.57A.55.55,0,0,0,26.83,31.28Z"/><path class="cls-4" d="M26.83,33.53H15.12a.56.56,0,0,0-.57.56.57.57,0,0,0,.57.57H26.83a.56.56,0,0,0,.57-.57A.58.58,0,0,0,26.83,33.53Z"/><path class="cls-4" d="M26.83,35.73H15.12a.57.57,0,0,0-.57.57.55.55,0,0,0,.57.57H26.83a.56.56,0,0,0,.57-.57A.57.57,0,0,0,26.83,35.73Z"/><path class="cls-4" d="M26.83,38H15.12a.56.56,0,0,0-.57.56.57.57,0,0,0,.57.57H26.83a.56.56,0,0,0,.57-.57A.58.58,0,0,0,26.83,38Z"/><path class="cls-4" d="M26.83,40.22H15.12a.57.57,0,1,0,0,1.13H26.83a.56.56,0,0,0,.57-.56A.58.58,0,0,0,26.83,40.22Z"/><path class="cls-4" d="M29,36.87h4.45a.56.56,0,0,0,.57-.57V31.85a.56.56,0,0,0-.57-.57H29a.57.57,0,0,0-.57.57V36.3A.62.62,0,0,0,29,36.87ZM33,32.39v3.34H29.61v-1.1h1.67a.57.57,0,0,0,.57-.57.56.56,0,0,0-.57-.57H29.61v-1.1Z"/><path class="cls-4" d="M41.32,31.28H36.87a.57.57,0,0,0,0,1.14h4.45a.56.56,0,0,0,.57-.57A.57.57,0,0,0,41.32,31.28Z"/><path class="cls-4" d="M41.32,33.53H35.73a.56.56,0,0,0-.57.56.57.57,0,0,0,.57.57h5.59a.57.57,0,1,0,0-1.13Z"/><path class="cls-4" d="M41.32,35.73H35.73a.57.57,0,0,0-.57.57.55.55,0,0,0,.57.57h5.59a.56.56,0,0,0,.57-.57A.57.57,0,0,0,41.32,35.73Z"/><path class="cls-4" d="M41.32,38H29a.56.56,0,0,0-.57.56.57.57,0,0,0,.57.57H41.32a.57.57,0,1,0,0-1.13Z"/><path class="cls-4" d="M41.32,40.22H29a.57.57,0,1,0,0,1.13H41.32a.57.57,0,1,0,0-1.13Z"/><path class="cls-4" d="M18.7,20.78a1.71,1.71,0,0,0-2,.3.57.57,0,0,0,.07.8.59.59,0,0,0,.73,0,.55.55,0,0,1,.8,0,.59.59,0,0,0,.41.17.63.63,0,0,0,.4-.17.55.55,0,0,1,.8,0,.57.57,0,0,0,.4.17.57.57,0,0,0,.4-1A1.85,1.85,0,0,0,18.7,20.78Z"/></g></svg>